<svg width="103" height="37" viewBox="0 0 103 37" fill="none" xmlns="http://www.w3.org/2000/svg">
<path d="M100.426 8.18999C99.8661 8.18999 99.3494 8.11333 98.8761 7.96C98.4028 7.8 97.9861 7.56 97.6261 7.24C97.2728 6.91999 96.9961 6.52 96.7961 6.04C96.5961 5.56 96.4961 4.99666 96.4961 4.35C96.4961 3.69 96.5961 3.11333 96.7961 2.61999C97.0028 2.11999 97.2861 1.70333 97.6461 1.36999C98.0061 1.02999 98.4228 0.779995 98.8961 0.619995C99.3761 0.453328 99.8894 0.369995 100.436 0.369995C100.896 0.369995 101.289 0.419995 101.616 0.519995C101.949 0.613328 102.279 0.753328 102.606 0.939995L102.576 2.72H102.006L101.436 0.659995L102.206 0.919995V1.25C101.959 1.07 101.716 0.939995 101.476 0.859995C101.236 0.779995 100.973 0.739995 100.686 0.739995C100.206 0.739995 99.7728 0.866662 99.3861 1.12C98.9994 1.37333 98.6928 1.76333 98.4661 2.28999C98.2461 2.81666 98.1361 3.48333 98.1361 4.29C98.1361 5.09666 98.2494 5.75999 98.4761 6.27999C98.7028 6.79999 99.0094 7.18666 99.3961 7.43999C99.7828 7.68666 100.223 7.81 100.716 7.81C100.996 7.81 101.256 7.76999 101.496 7.68999C101.743 7.60333 101.999 7.46 102.266 7.26V7.63L101.516 7.88L102.076 5.84H102.646L102.676 7.60999C102.363 7.78999 102.023 7.93 101.656 8.02999C101.296 8.13666 100.886 8.18999 100.426 8.18999Z" fill="black"/>
<path d="M90.416 8V7.67L91.986 7.51H92.276L93.866 7.67V8H90.416ZM91.326 8C91.346 7.42666 91.356 6.85 91.356 6.27C91.3627 5.69 91.366 5.10333 91.366 4.51V4.06C91.366 3.46666 91.3627 2.88 91.356 2.3C91.356 1.72 91.346 1.14 91.326 0.559998H92.956C92.9427 1.13333 92.9327 1.71333 92.926 2.3C92.926 2.88 92.926 3.46666 92.926 4.06V4.51C92.926 5.09 92.926 5.67333 92.926 6.26C92.9327 6.84 92.9427 7.42 92.956 8H91.326ZM90.416 0.899997V0.559998H93.866V0.899997L92.276 1.04H91.986L90.416 0.899997Z" fill="black"/>
<path d="M82.7237 8V7.67L84.3237 7.51H84.7537L86.3937 7.67V8H82.7237ZM83.7437 8C83.757 7.42666 83.7637 6.85 83.7637 6.27C83.7703 5.69 83.7737 5.10333 83.7737 4.51V4.06C83.7737 3.46666 83.7703 2.88 83.7637 2.3C83.7637 1.72 83.757 1.14 83.7437 0.559998H85.3637C85.3503 1.13333 85.3403 1.71333 85.3337 2.3C85.3337 2.88 85.3337 3.46666 85.3337 4.06V4.51C85.3337 5.09 85.3337 5.67333 85.3337 6.26C85.3403 6.84 85.3503 7.42 85.3637 8H83.7437ZM81.2637 2.68L81.3137 0.559998H87.8037L87.8537 2.68H87.3037L86.7237 0.559998L87.4537 0.949997H81.6437L82.3937 0.559998L81.8237 2.68H81.2637Z" fill="black"/>
<path d="M76.4632 8.18999C75.9032 8.18999 75.3865 8.11333 74.9132 7.96C74.4399 7.8 74.0232 7.56 73.6632 7.24C73.3099 6.91999 73.0332 6.52 72.8332 6.04C72.6332 5.56 72.5332 4.99666 72.5332 4.35C72.5332 3.69 72.6332 3.11333 72.8332 2.61999C73.0399 2.11999 73.3232 1.70333 73.6832 1.36999C74.0432 1.02999 74.4599 0.779995 74.9332 0.619995C75.4132 0.453328 75.9265 0.369995 76.4732 0.369995C76.9332 0.369995 77.3265 0.419995 77.6532 0.519995C77.9865 0.613328 78.3165 0.753328 78.6432 0.939995L78.6132 2.72H78.0432L77.4732 0.659995L78.2432 0.919995V1.25C77.9965 1.07 77.7532 0.939995 77.5132 0.859995C77.2732 0.779995 77.0099 0.739995 76.7232 0.739995C76.2432 0.739995 75.8099 0.866662 75.4232 1.12C75.0365 1.37333 74.7299 1.76333 74.5032 2.28999C74.2832 2.81666 74.1732 3.48333 74.1732 4.29C74.1732 5.09666 74.2865 5.75999 74.5132 6.27999C74.7399 6.79999 75.0465 7.18666 75.4332 7.43999C75.8199 7.68666 76.2599 7.81 76.7532 7.81C77.0332 7.81 77.2932 7.76999 77.5332 7.68999C77.7799 7.60333 78.0365 7.46 78.3032 7.26V7.63L77.5532 7.88L78.1132 5.84H78.6832L78.7132 7.60999C78.3999 7.78999 78.0599 7.93 77.6932 8.02999C77.3332 8.13666 76.9232 8.18999 76.4632 8.18999Z" fill="black"/>
<path d="M63.0488 8V7.67L64.0388 7.52H64.2288L65.3188 7.67V8H63.0488ZM63.7288 8L66.2288 0.529999H67.1888L69.7388 8H68.1488L66.0588 1.48H66.2688L66.2388 1.62L64.2488 8H63.7288ZM64.8488 5.61L64.9288 5.27H68.1288L68.2088 5.61H64.8488ZM67.0088 8V7.66L68.3588 7.51H68.9288L70.3388 7.66V8H67.0088Z" fill="black"/>
<path d="M53.7227 8V7.67L55.2927 7.51H55.6027L57.1727 7.67V8H53.7227ZM54.6327 8C54.646 7.42666 54.6527 6.85 54.6527 6.27C54.6593 5.69 54.6627 5.10333 54.6627 4.51V4.06C54.6627 3.46666 54.6593 2.88 54.6527 2.3C54.6527 1.72 54.646 1.14 54.6327 0.559998H56.2327C56.2193 1.13333 56.2093 1.71666 56.2027 2.31C56.2027 2.89666 56.2027 3.52 56.2027 4.18V4.46C56.2027 5.06666 56.2027 5.66333 56.2027 6.25C56.2093 6.83666 56.2193 7.42 56.2327 8H54.6327ZM59.6927 8.14C59.2527 8.14 58.9127 8.06666 58.6727 7.92C58.4393 7.77333 58.296 7.51 58.2427 7.13L57.9127 5.7C57.866 5.42 57.7993 5.19333 57.7127 5.02C57.6327 4.84 57.5127 4.70666 57.3527 4.62C57.1993 4.53333 56.9893 4.49 56.7227 4.49H55.4627V4.13H56.8527C57.226 4.13 57.5293 4.05666 57.7627 3.91C57.996 3.75666 58.166 3.55666 58.2727 3.31C58.386 3.05666 58.4427 2.77666 58.4427 2.47C58.4427 1.97666 58.3093 1.59666 58.0427 1.33C57.776 1.06333 57.3827 0.929997 56.8627 0.929997H55.4427V0.559998H57.2427C58.1027 0.559998 58.7627 0.726664 59.2227 1.06C59.6827 1.38666 59.9127 1.84666 59.9127 2.44C59.9127 2.75333 59.826 3.04666 59.6527 3.32C59.4793 3.59333 59.196 3.82333 58.8027 4.01C58.4093 4.19666 57.8827 4.30666 57.2227 4.34V4.23C57.796 4.25 58.2393 4.32666 58.5527 4.46C58.866 4.58666 59.096 4.77333 59.2427 5.02C59.3893 5.26 59.496 5.56333 59.5627 5.93L59.9827 7.9L59.2027 7.56L60.8227 7.67V8C60.6293 8.04 60.4527 8.07333 60.2927 8.1C60.1327 8.12666 59.9327 8.14 59.6927 8.14ZM53.7227 0.899997V0.559998H55.4427V1.04H55.2927L53.7227 0.899997Z" fill="black"/>
<path d="M45.1152 8V7.67L46.6852 7.51H47.1252L48.7152 7.67V8H45.1152ZM46.0252 8C46.0386 7.42666 46.0452 6.85 46.0452 6.27C46.0519 5.69 46.0552 5.10333 46.0552 4.51V4.06C46.0552 3.46666 46.0519 2.88 46.0452 2.3C46.0452 1.72 46.0386 1.14 46.0252 0.559998H47.6452C47.6319 1.13333 47.6219 1.71333 47.6152 2.3C47.6152 2.88 47.6152 3.46666 47.6152 4.06V4.76C47.6152 5.22666 47.6152 5.74 47.6152 6.3C47.6219 6.85333 47.6319 7.42 47.6452 8H46.0252ZM46.8352 5.01V4.64H47.9952C48.4019 4.64 48.7352 4.56 48.9952 4.4C49.2552 4.24 49.4486 4.02 49.5752 3.74C49.7019 3.45333 49.7652 3.12666 49.7652 2.76C49.7652 2.15333 49.6252 1.69666 49.3452 1.39C49.0652 1.08333 48.6486 0.929997 48.0952 0.929997H46.8352V0.559998H48.1152C49.2219 0.559998 50.0186 0.753331 50.5052 1.14C50.9919 1.52666 51.2352 2.06666 51.2352 2.76C51.2352 3.17333 51.1286 3.55333 50.9152 3.9C50.7086 4.24 50.3719 4.51 49.9052 4.71C49.4386 4.91 48.8152 5.01 48.0352 5.01H46.8352ZM45.1152 0.899997V0.559998H46.8352V1.04H46.6852L45.1152 0.899997Z" fill="black"/>
<path d="M38.9805 8.18999C38.5205 8.18999 38.0805 8.10666 37.6605 7.93999C37.2405 7.77333 36.8638 7.52666 36.5305 7.2C36.2038 6.86666 35.9471 6.45666 35.7605 5.97C35.5738 5.48333 35.4805 4.91999 35.4805 4.27999C35.4805 3.63999 35.5738 3.07666 35.7605 2.59C35.9471 2.10333 36.2038 1.69666 36.5305 1.36999C36.8638 1.03666 37.2405 0.786661 37.6605 0.619995C38.0805 0.453328 38.5205 0.369995 38.9805 0.369995C39.4538 0.369995 39.8971 0.453328 40.3105 0.619995C40.7305 0.786661 41.1038 1.03666 41.4305 1.36999C41.7571 1.69666 42.0138 2.10333 42.2005 2.59C42.3871 3.07666 42.4805 3.63999 42.4805 4.27999C42.4805 4.91333 42.3871 5.47666 42.2005 5.97C42.0138 6.45666 41.7571 6.86666 41.4305 7.2C41.1038 7.52666 40.7305 7.77333 40.3105 7.93999C39.8971 8.10666 39.4538 8.18999 38.9805 8.18999ZM38.9805 7.81999C39.3005 7.81999 39.5771 7.73333 39.8105 7.56C40.0438 7.38 40.2371 7.13 40.3905 6.81C40.5438 6.49 40.6571 6.11666 40.7305 5.68999C40.8038 5.25666 40.8405 4.78666 40.8405 4.27999C40.8405 3.77333 40.8038 3.30666 40.7305 2.87999C40.6571 2.45333 40.5438 2.07999 40.3905 1.75999C40.2371 1.43999 40.0438 1.18999 39.8105 1.00999C39.5771 0.829995 39.3005 0.739995 38.9805 0.739995C38.6671 0.739995 38.3905 0.829995 38.1505 1.00999C37.9171 1.18999 37.7238 1.43999 37.5705 1.75999C37.4171 2.07999 37.3038 2.45333 37.2305 2.87999C37.1571 3.30666 37.1205 3.77333 37.1205 4.27999C37.1205 4.78666 37.1571 5.25666 37.2305 5.68999C37.3038 6.11666 37.4171 6.49 37.5705 6.81C37.7238 7.13 37.9171 7.38 38.1505 7.56C38.3905 7.73333 38.6671 7.81999 38.9805 7.81999Z" fill="black"/>
<path d="M26.1582 8V7.67L27.7282 7.51H28.0382L29.6082 7.67V8H26.1582ZM27.0682 8C27.0815 7.42666 27.0882 6.85 27.0882 6.27C27.0949 5.69 27.0982 5.10333 27.0982 4.51V4.06C27.0982 3.46666 27.0949 2.88 27.0882 2.3C27.0882 1.72 27.0815 1.14 27.0682 0.559998H28.6682C28.6549 1.13333 28.6449 1.71666 28.6382 2.31C28.6382 2.89666 28.6382 3.52 28.6382 4.18V4.46C28.6382 5.06666 28.6382 5.66333 28.6382 6.25C28.6449 6.83666 28.6549 7.42 28.6682 8H27.0682ZM32.1282 8.14C31.6882 8.14 31.3482 8.06666 31.1082 7.92C30.8749 7.77333 30.7315 7.51 30.6782 7.13L30.3482 5.7C30.3015 5.42 30.2349 5.19333 30.1482 5.02C30.0682 4.84 29.9482 4.70666 29.7882 4.62C29.6349 4.53333 29.4249 4.49 29.1582 4.49H27.8982V4.13H29.2882C29.6615 4.13 29.9649 4.05666 30.1982 3.91C30.4315 3.75666 30.6015 3.55666 30.7082 3.31C30.8215 3.05666 30.8782 2.77666 30.8782 2.47C30.8782 1.97666 30.7449 1.59666 30.4782 1.33C30.2115 1.06333 29.8182 0.929997 29.2982 0.929997H27.8782V0.559998H29.6782C30.5382 0.559998 31.1982 0.726664 31.6582 1.06C32.1182 1.38666 32.3482 1.84666 32.3482 2.44C32.3482 2.75333 32.2615 3.04666 32.0882 3.32C31.9149 3.59333 31.6315 3.82333 31.2382 4.01C30.8449 4.19666 30.3182 4.30666 29.6582 4.34V4.23C30.2315 4.25 30.6749 4.32666 30.9882 4.46C31.3015 4.58666 31.5315 4.77333 31.6782 5.02C31.8249 5.26 31.9315 5.56333 31.9982 5.93L32.4182 7.9L31.6382 7.56L33.2582 7.67V8C33.0649 8.04 32.8882 8.07333 32.7282 8.1C32.5682 8.12666 32.3682 8.14 32.1282 8.14ZM26.1582 0.899997V0.559998H27.8782V1.04H27.7282L26.1582 0.899997Z" fill="black"/>
<path d="M19.9512 8V7.67L21.5212 7.51H21.8112L23.4012 7.67V8H19.9512ZM20.8612 8C20.8812 7.42666 20.8912 6.85 20.8912 6.27C20.8978 5.69 20.9012 5.10333 20.9012 4.51V4.06C20.9012 3.46666 20.8978 2.88 20.8912 2.3C20.8912 1.72 20.8812 1.14 20.8612 0.559998H22.4912C22.4778 1.13333 22.4678 1.71333 22.4612 2.3C22.4612 2.88 22.4612 3.46666 22.4612 4.06V4.51C22.4612 5.09 22.4612 5.67333 22.4612 6.26C22.4678 6.84 22.4778 7.42 22.4912 8H20.8612ZM19.9512 0.899997V0.559998H23.4012V0.899997L21.8112 1.04H21.5212L19.9512 0.899997Z" fill="black"/>
<path d="M9.37891 8V7.67L10.8989 7.51H11.1889L12.7589 7.67V8H9.37891ZM10.2789 8C10.2922 7.42666 10.2989 6.85 10.2989 6.27C10.2989 5.69 10.2989 5.10333 10.2989 4.51V4.06C10.2989 3.46666 10.2989 2.88 10.2989 2.3C10.2989 1.72 10.2922 1.14 10.2789 0.559998H11.8989C11.8856 1.13333 11.8756 1.71333 11.8689 2.3C11.8689 2.88 11.8689 3.46666 11.8689 4.06V4.35C11.8689 5.00333 11.8689 5.63 11.8689 6.23C11.8756 6.83 11.8856 7.42 11.8989 8H10.2789ZM11.0889 4.39V4.02H15.4889V4.39H11.0889ZM13.8089 8V7.67L15.3589 7.51H15.6489L17.1889 7.67V8H13.8089ZM14.6689 8C14.6889 7.42666 14.6989 6.84333 14.6989 6.25C14.7056 5.65666 14.7089 5.02333 14.7089 4.35V4.06C14.7089 3.46666 14.7056 2.88 14.6989 2.3C14.6989 1.72 14.6889 1.14 14.6689 0.559998H16.2989C16.2856 1.13333 16.2756 1.71333 16.2689 2.3C16.2689 2.88 16.2689 3.46666 16.2689 4.06V4.51C16.2689 5.09 16.2689 5.67333 16.2689 6.26C16.2756 6.84 16.2856 7.42 16.2989 8H14.6689ZM9.37891 0.899997V0.559998H12.7589V0.899997L11.1889 1.04H10.8989L9.37891 0.899997ZM13.8089 0.899997V0.559998H17.1889V0.899997L15.6489 1.04H15.3589L13.8089 0.899997Z" fill="black"/>
<path d="M4.37922 8.18999C3.81922 8.18999 3.30255 8.11333 2.82922 7.96C2.35589 7.8 1.93922 7.56 1.57922 7.24C1.22589 6.91999 0.949219 6.52 0.749219 6.04C0.549219 5.56 0.449219 4.99666 0.449219 4.35C0.449219 3.69 0.549219 3.11333 0.749219 2.61999C0.955885 2.11999 1.23922 1.70333 1.59922 1.36999C1.95922 1.02999 2.37589 0.779995 2.84922 0.619995C3.32922 0.453328 3.84255 0.369995 4.38922 0.369995C4.84922 0.369995 5.24255 0.419995 5.56922 0.519995C5.90255 0.613328 6.23255 0.753328 6.55922 0.939995L6.52922 2.72H5.95922L5.38922 0.659995L6.15922 0.919995V1.25C5.91255 1.07 5.66922 0.939995 5.42922 0.859995C5.18922 0.779995 4.92589 0.739995 4.63922 0.739995C4.15922 0.739995 3.72589 0.866662 3.33922 1.12C2.95255 1.37333 2.64589 1.76333 2.41922 2.28999C2.19922 2.81666 2.08922 3.48333 2.08922 4.29C2.08922 5.09666 2.20255 5.75999 2.42922 6.27999C2.65589 6.79999 2.96255 7.18666 3.34922 7.43999C3.73589 7.68666 4.17589 7.81 4.66922 7.81C4.94922 7.81 5.20922 7.76999 5.44922 7.68999C5.69589 7.60333 5.95255 7.46 6.21922 7.26V7.63L5.46922 7.88L6.02922 5.84H6.59922L6.62922 7.60999C6.31589 7.78999 5.97589 7.93 5.60922 8.02999C5.24922 8.13666 4.83922 8.18999 4.37922 8.18999Z" fill="black"/>
<path d="M89.7423 35.608C91.3423 34.968 92.6303 34.224 93.6063 33.376C94.5983 32.512 95.3423 31.592 95.8383 30.616C96.3343 29.624 96.6703 28.616 96.8463 27.592C97.0223 26.552 97.1103 25.544 97.1103 24.568C97.1103 23.128 97.0223 21.976 96.8463 21.112C96.6703 20.232 96.4143 19.592 96.0783 19.192C95.7583 18.792 95.3663 18.592 94.9023 18.592C94.6303 18.592 94.3263 18.688 93.9903 18.88C93.6703 19.056 93.3503 19.328 93.0303 19.696C92.7263 20.048 92.4383 20.504 92.1663 21.064C91.7983 21.8 91.5263 22.528 91.3503 23.248C91.1743 23.968 91.0863 24.696 91.0863 25.432C91.0863 26.024 91.1183 26.56 91.1823 27.04C91.2463 27.52 91.2783 28.048 91.2783 28.624C91.2783 28.992 91.1503 29.296 90.8943 29.536C90.6383 29.776 90.3183 29.896 89.9343 29.896C89.5343 29.896 89.2063 29.8 88.9503 29.608C88.6943 29.4 88.4863 29.112 88.3263 28.744C88.2143 28.488 88.1263 28.216 88.0623 27.928C87.9983 27.64 87.9503 27.336 87.9183 27.016C87.8863 26.696 87.8703 26.368 87.8703 26.032C87.8703 25.472 87.9263 24.832 88.0383 24.112C88.1503 23.392 88.2703 22.664 88.3983 21.928C88.5263 21.176 88.6383 20.48 88.7343 19.84C88.8463 19.2 88.9023 18.672 88.9023 18.256C88.9023 17.696 88.8543 17.192 88.7583 16.744C88.6783 16.296 88.5263 15.88 88.3023 15.496C88.0943 15.096 87.8223 14.696 87.4863 14.296L87.6063 14.104C87.8783 14.088 88.1903 14.112 88.5423 14.176C88.9103 14.24 89.2303 14.328 89.5023 14.44C89.9343 14.632 90.3343 14.888 90.7023 15.208C91.0703 15.528 91.3663 15.864 91.5903 16.216C91.8303 16.568 91.9503 16.888 91.9503 17.176C91.9503 17.512 91.9023 17.816 91.8063 18.088C91.7103 18.36 91.6143 18.632 91.5183 18.904C91.3743 19.288 91.2623 19.648 91.1823 19.984C91.1023 20.32 91.0543 20.576 91.0383 20.752C91.0383 20.976 91.0703 21.096 91.1343 21.112C91.2143 21.112 91.3023 21.016 91.3983 20.824C91.8303 20.056 92.2783 19.408 92.7423 18.88C93.2063 18.352 93.6863 17.952 94.1823 17.68C94.6943 17.392 95.2143 17.248 95.7423 17.248C96.6543 17.248 97.4543 17.528 98.1423 18.088C98.8463 18.632 99.3983 19.48 99.7983 20.632C100.198 21.768 100.398 23.248 100.398 25.072C100.398 26.928 100.046 28.616 99.3423 30.136C98.6383 31.656 97.5183 32.928 95.9823 33.952C94.4463 34.96 92.4143 35.656 89.8863 36.04L89.7423 35.608Z" fill="black"/>
<path d="M72.7274 23.8C72.5354 23.8 72.3434 23.728 72.1514 23.584C71.9754 23.424 71.7914 23.2 71.5994 22.912C71.3754 22.56 71.0954 22.144 70.7594 21.664C70.4234 21.184 69.9834 20.68 69.4394 20.152L69.6794 19.84C70.3674 20.016 70.9994 20.24 71.5754 20.512C72.1674 20.768 72.6634 21.088 73.0634 21.472C73.5114 21.904 73.7354 22.352 73.7354 22.816C73.7354 23.088 73.6474 23.32 73.4714 23.512C73.3114 23.704 73.0634 23.8 72.7274 23.8ZM68.5754 35.8C68.2234 35.8 67.9114 35.704 67.6394 35.512C67.3834 35.336 67.1754 35.128 67.0154 34.888C66.8554 34.616 66.6874 34.32 66.5114 34C66.3514 33.696 66.1114 33.28 65.7914 32.752C65.3594 32.032 64.6634 31.2 63.7034 30.256C62.7594 29.296 61.5994 28.224 60.2234 27.04C59.9194 26.784 59.6954 26.52 59.5514 26.248C59.4234 25.96 59.3594 25.712 59.3594 25.504C59.3594 25.232 59.4154 24.976 59.5274 24.736C59.6394 24.496 59.8234 24.216 60.0794 23.896C60.3514 23.576 60.6874 23.192 61.0874 22.744C61.4874 22.28 61.9114 21.792 62.3594 21.28C62.8234 20.768 63.2794 20.272 63.7274 19.792C64.1754 19.296 64.5674 18.848 64.9034 18.448C65.2554 18.032 65.5194 17.704 65.6954 17.464C65.8874 17.24 66.0154 17.048 66.0794 16.888C66.1594 16.728 66.1994 16.56 66.1994 16.384C66.1994 16.112 66.0714 15.824 65.8154 15.52C65.5754 15.2 65.3034 14.88 64.9994 14.56L65.1914 14.224C65.5914 14.256 65.9754 14.304 66.3434 14.368C66.7114 14.416 67.0474 14.52 67.3514 14.68C67.8794 14.92 68.3434 15.232 68.7434 15.616C69.1434 15.984 69.4634 16.368 69.7034 16.768C69.9434 17.168 70.0634 17.52 70.0634 17.824C70.0634 18.096 69.9754 18.32 69.7994 18.496C69.6394 18.656 69.4154 18.816 69.1274 18.976C68.8394 19.12 68.5114 19.32 68.1434 19.576C67.7114 19.864 67.2234 20.208 66.6794 20.608C66.1354 20.992 65.5994 21.392 65.0714 21.808C64.5434 22.208 64.0554 22.592 63.6074 22.96C63.1754 23.328 62.8314 23.64 62.5754 23.896C62.2714 24.2 62.0474 24.448 61.9034 24.64C61.7754 24.816 61.7114 24.976 61.7114 25.12C61.7114 25.296 61.7914 25.472 61.9514 25.648C62.1274 25.808 62.3434 25.976 62.5994 26.152C63.3514 26.664 64.1354 27.184 64.9514 27.712C65.7834 28.24 66.5834 28.8 67.3514 29.392C68.1194 29.984 68.7754 30.616 69.3194 31.288C69.7514 31.848 70.0394 32.336 70.1834 32.752C70.3434 33.152 70.4234 33.568 70.4234 34C70.4234 34.256 70.3674 34.528 70.2554 34.816C70.1434 35.104 69.9514 35.336 69.6794 35.512C69.4074 35.704 69.0394 35.8 68.5754 35.8ZM75.1034 21.688C74.8634 21.688 74.6554 21.608 74.4794 21.448C74.3194 21.272 74.1274 21.032 73.9034 20.728C73.6794 20.44 73.4074 20.088 73.0874 19.672C72.7834 19.256 72.3114 18.792 71.6714 18.28L71.9114 17.968C73.3674 18.272 74.4554 18.688 75.1754 19.216C75.7354 19.632 76.0154 20.136 76.0154 20.728C76.0154 21.016 75.9354 21.248 75.7754 21.424C75.6154 21.6 75.3914 21.688 75.1034 21.688Z" fill="black"/>
<path d="M42.5358 34.984C41.3678 34.984 40.4718 34.68 39.8478 34.072C39.2398 33.464 38.9278 32.68 38.9118 31.72C38.8958 30.856 38.9358 30.072 39.0318 29.368C39.1278 28.664 39.1758 27.92 39.1758 27.136C39.1758 26.64 39.0638 26.216 38.8398 25.864C38.6158 25.512 38.1838 25.336 37.5438 25.336C36.9358 25.336 36.3598 25.536 35.8158 25.936C35.2718 26.336 34.7838 26.84 34.3518 27.448C33.9198 28.056 33.5758 28.68 33.3198 29.32C33.0478 29.976 32.7998 30.664 32.5758 31.384C32.3678 32.088 32.1598 32.736 31.9518 33.328C31.8078 33.728 31.5998 34.08 31.3278 34.384C31.0558 34.704 30.6718 34.864 30.1758 34.864C29.8238 34.864 29.5278 34.76 29.2878 34.552C29.0638 34.36 28.8878 34.112 28.7598 33.808C28.6478 33.504 28.5918 33.2 28.5918 32.896C28.5918 32.448 28.7278 31.944 28.9998 31.384C29.2718 30.824 29.6158 30.216 30.0318 29.56C30.4478 28.904 30.8798 28.192 31.3278 27.424C31.6158 26.928 31.9758 26.312 32.4078 25.576C32.8398 24.84 33.2958 24.064 33.7758 23.248C34.2718 22.432 34.7438 21.64 35.1918 20.872C35.6398 20.088 36.0318 19.4 36.3678 18.808C36.7038 18.2 36.9438 17.76 37.0878 17.488C37.1838 17.264 37.2158 17.072 37.1838 16.912C37.1678 16.736 37.0958 16.592 36.9678 16.48C36.7758 16.32 36.5358 16.168 36.2478 16.024C35.9758 15.864 35.7278 15.736 35.5038 15.64L35.5278 15.328C35.8318 15.2 36.1838 15.112 36.5838 15.064C36.9998 15 37.3438 14.984 37.6158 15.016C38.3198 15.096 38.9278 15.304 39.4398 15.64C39.9518 15.976 40.3438 16.36 40.6158 16.792C40.9038 17.208 41.0478 17.584 41.0478 17.92C41.0478 18.208 40.8878 18.456 40.5678 18.664C40.2478 18.872 39.9198 19.144 39.5838 19.48C39.2638 19.8 38.9038 20.184 38.5038 20.632C38.1198 21.064 37.7278 21.536 37.3278 22.048C36.9278 22.544 36.5518 23.04 36.1998 23.536C35.8478 24.016 35.5518 24.448 35.3118 24.832C35.2798 24.912 35.2718 24.96 35.2878 24.976C35.3198 24.992 35.3678 24.984 35.4318 24.952C36.0078 24.68 36.5518 24.488 37.0638 24.376C37.5758 24.264 38.0078 24.208 38.3598 24.208C39.3838 24.208 40.1838 24.456 40.7598 24.952C41.3358 25.448 41.6638 26.144 41.7438 27.04C41.8078 27.616 41.8318 28.176 41.8158 28.72C41.8158 29.248 41.8158 29.864 41.8158 30.568C41.8158 31.144 41.9598 31.536 42.2478 31.744C42.5518 31.952 42.9198 32.056 43.3518 32.056C43.9758 32.056 44.5758 31.896 45.1518 31.576C45.7438 31.24 46.2878 30.816 46.7838 30.304C47.2798 29.776 47.7198 29.192 48.1038 28.552C48.4878 27.912 48.8078 27.272 49.0638 26.632L49.3998 26.704C49.3038 28.144 49.0558 29.392 48.6558 30.448C48.2718 31.488 47.7758 32.344 47.1678 33.016C46.5598 33.688 45.8558 34.184 45.0558 34.504C44.2718 34.824 43.4318 34.984 42.5358 34.984Z" fill="black"/>
<path d="M18.703 19.696C18.495 19.68 18.311 19.6 18.151 19.456C17.991 19.312 17.815 19.104 17.623 18.832C17.399 18.496 17.127 18.112 16.807 17.68C16.503 17.232 16.071 16.752 15.511 16.24L15.727 15.952C16.415 16.128 17.039 16.336 17.599 16.576C18.175 16.8 18.655 17.088 19.039 17.44C19.279 17.664 19.439 17.888 19.519 18.112C19.615 18.336 19.663 18.56 19.663 18.784C19.663 19.04 19.575 19.264 19.399 19.456C19.223 19.632 18.991 19.712 18.703 19.696ZM10.711 35.392C9.33495 35.392 8.10295 35.232 7.01495 34.912C5.92695 34.592 5.06295 34.112 4.42295 33.472C3.79895 32.816 3.48695 31.992 3.48695 31C3.48695 30.296 3.63095 29.616 3.91895 28.96C4.20695 28.288 4.58295 27.656 5.04695 27.064C5.52695 26.456 6.03895 25.904 6.58295 25.408C7.12695 24.912 7.65495 24.48 8.16695 24.112C8.61495 23.792 9.11895 23.456 9.67895 23.104C10.255 22.752 10.815 22.416 11.359 22.096C11.919 21.776 12.407 21.488 12.823 21.232C13.255 20.976 13.551 20.792 13.711 20.68C13.855 20.6 13.943 20.504 13.975 20.392C14.007 20.28 13.991 20.144 13.927 19.984C13.863 19.76 13.735 19.568 13.543 19.408C13.367 19.232 13.191 19.064 13.015 18.904L13.159 18.664C13.607 18.664 14.031 18.688 14.431 18.736C14.831 18.768 15.191 18.864 15.511 19.024C15.847 19.168 16.167 19.384 16.471 19.672C16.791 19.96 17.055 20.264 17.263 20.584C17.471 20.904 17.575 21.216 17.575 21.52C17.575 21.808 17.455 22.048 17.215 22.24C16.975 22.416 16.559 22.592 15.967 22.768C15.327 22.96 14.607 23.216 13.807 23.536C13.023 23.84 12.231 24.184 11.431 24.568C10.631 24.936 9.88695 25.32 9.19895 25.72C8.65495 26.04 8.14295 26.384 7.66295 26.752C7.19895 27.104 6.79095 27.48 6.43895 27.88C6.08695 28.264 5.81495 28.656 5.62295 29.056C5.43095 29.456 5.33495 29.864 5.33495 30.28C5.33495 30.744 5.48695 31.136 5.79095 31.456C6.11095 31.76 6.57495 31.992 7.18295 32.152C7.79095 32.296 8.54295 32.368 9.43895 32.368C10.543 32.368 11.487 32.304 12.271 32.176C13.071 32.048 13.711 31.92 14.191 31.792C14.671 31.664 14.983 31.6 15.127 31.6C15.655 31.6 16.143 31.648 16.591 31.744C17.055 31.84 17.423 32.008 17.695 32.248C17.967 32.488 18.103 32.816 18.103 33.232C18.103 33.52 17.991 33.8 17.767 34.072C17.543 34.344 17.255 34.552 16.903 34.696C16.567 34.824 16.079 34.936 15.439 35.032C14.815 35.144 14.095 35.232 13.279 35.296C12.479 35.36 11.623 35.392 10.711 35.392ZM8.43095 24.64C7.93495 24.464 7.52695 24.224 7.20695 23.92C6.88695 23.616 6.61495 23.264 6.39095 22.864C6.21495 22.496 6.05495 22.024 5.91095 21.448C5.78295 20.856 5.67095 20.248 5.57495 19.624C5.47895 19 5.39895 18.456 5.33495 17.992C5.28695 17.688 5.19895 17.448 5.07095 17.272C4.95895 17.096 4.78295 16.92 4.54295 16.744C4.35095 16.616 4.12695 16.488 3.87095 16.36C3.63095 16.232 3.38295 16.12 3.12695 16.024V15.712C3.44695 15.568 3.78295 15.448 4.13495 15.352C4.50295 15.24 4.87095 15.184 5.23895 15.184C5.83095 15.184 6.37495 15.304 6.87095 15.544C7.36695 15.768 7.75895 16.04 8.04695 16.36C8.35095 16.664 8.50295 16.96 8.50295 17.248C8.51895 17.488 8.49495 17.76 8.43095 18.064C8.38295 18.368 8.35895 18.672 8.35895 18.976C8.35895 19.296 8.37495 19.632 8.40695 19.984C8.43895 20.336 8.48695 20.68 8.55095 21.016C8.61495 21.336 8.69495 21.616 8.79095 21.856C8.96695 22.24 9.19095 22.552 9.46295 22.792C9.73495 23.032 10.055 23.224 10.423 23.368L8.43095 24.64ZM21.079 17.896C20.839 17.896 20.631 17.816 20.455 17.656C20.295 17.496 20.103 17.272 19.879 16.984C19.671 16.696 19.415 16.376 19.111 16.024C18.823 15.656 18.351 15.208 17.695 14.68L17.887 14.392C18.591 14.52 19.215 14.68 19.759 14.872C20.319 15.048 20.775 15.264 21.127 15.52C21.431 15.728 21.639 15.96 21.751 16.216C21.879 16.456 21.943 16.72 21.943 17.008C21.943 17.28 21.863 17.496 21.703 17.656C21.559 17.816 21.351 17.896 21.079 17.896Z" fill="black"/>
</svg>
