<svg width="108" height="37" viewBox="0 0 108 37" fill="none" xmlns="http://www.w3.org/2000/svg">
<path d="M99.9238 8V7.67L101.494 7.51H101.804L103.374 7.67V8H99.9238ZM100.834 8C100.847 7.42666 100.854 6.85 100.854 6.27C100.86 5.69 100.864 5.10333 100.864 4.51V4.06C100.864 3.46666 100.86 2.88 100.854 2.3C100.854 1.72 100.847 1.14 100.834 0.559998H102.434C102.42 1.13333 102.41 1.71666 102.404 2.31C102.404 2.89666 102.404 3.52 102.404 4.18V4.46C102.404 5.06666 102.404 5.66333 102.404 6.25C102.41 6.83666 102.42 7.42 102.434 8H100.834ZM105.894 8.14C105.454 8.14 105.114 8.06666 104.874 7.92C104.64 7.77333 104.497 7.51 104.444 7.13L104.114 5.7C104.067 5.42 104 5.19333 103.914 5.02C103.834 4.84 103.714 4.70666 103.554 4.62C103.4 4.53333 103.19 4.49 102.924 4.49H101.664V4.13H103.054C103.427 4.13 103.73 4.05666 103.964 3.91C104.197 3.75666 104.367 3.55666 104.474 3.31C104.587 3.05666 104.644 2.77666 104.644 2.47C104.644 1.97666 104.51 1.59666 104.244 1.33C103.977 1.06333 103.584 0.929997 103.064 0.929997H101.644V0.559998H103.444C104.304 0.559998 104.964 0.726664 105.424 1.06C105.884 1.38666 106.114 1.84666 106.114 2.44C106.114 2.75333 106.027 3.04666 105.854 3.32C105.68 3.59333 105.397 3.82333 105.004 4.01C104.61 4.19666 104.084 4.30666 103.424 4.34V4.23C103.997 4.25 104.44 4.32666 104.754 4.46C105.067 4.58666 105.297 4.77333 105.444 5.02C105.59 5.26 105.697 5.56333 105.764 5.93L106.184 7.9L105.404 7.56L107.024 7.67V8C106.83 8.04 106.654 8.07333 106.494 8.1C106.334 8.12666 106.134 8.14 105.894 8.14ZM99.9238 0.899997V0.559998H101.644V1.04H101.494L99.9238 0.899997Z" fill="black"/>
<path d="M93.79 8.18999C93.33 8.18999 92.89 8.10666 92.47 7.93999C92.05 7.77333 91.6734 7.52666 91.34 7.2C91.0134 6.86666 90.7567 6.45666 90.57 5.97C90.3834 5.48333 90.29 4.91999 90.29 4.27999C90.29 3.63999 90.3834 3.07666 90.57 2.59C90.7567 2.10333 91.0134 1.69666 91.34 1.36999C91.6734 1.03666 92.05 0.786661 92.47 0.619995C92.89 0.453328 93.33 0.369995 93.79 0.369995C94.2634 0.369995 94.7067 0.453328 95.12 0.619995C95.54 0.786661 95.9134 1.03666 96.24 1.36999C96.5667 1.69666 96.8234 2.10333 97.01 2.59C97.1967 3.07666 97.29 3.63999 97.29 4.27999C97.29 4.91333 97.1967 5.47666 97.01 5.97C96.8234 6.45666 96.5667 6.86666 96.24 7.2C95.9134 7.52666 95.54 7.77333 95.12 7.93999C94.7067 8.10666 94.2634 8.18999 93.79 8.18999ZM93.79 7.81999C94.11 7.81999 94.3867 7.73333 94.62 7.56C94.8534 7.38 95.0467 7.13 95.2 6.81C95.3534 6.49 95.4667 6.11666 95.54 5.68999C95.6134 5.25666 95.65 4.78666 95.65 4.27999C95.65 3.77333 95.6134 3.30666 95.54 2.87999C95.4667 2.45333 95.3534 2.07999 95.2 1.75999C95.0467 1.43999 94.8534 1.18999 94.62 1.00999C94.3867 0.829995 94.11 0.739995 93.79 0.739995C93.4767 0.739995 93.2 0.829995 92.96 1.00999C92.7267 1.18999 92.5334 1.43999 92.38 1.75999C92.2267 2.07999 92.1134 2.45333 92.04 2.87999C91.9667 3.30666 91.93 3.77333 91.93 4.27999C91.93 4.78666 91.9667 5.25666 92.04 5.68999C92.1134 6.11666 92.2267 6.49 92.38 6.81C92.5334 7.13 92.7267 7.38 92.96 7.56C93.2 7.73333 93.4767 7.81999 93.79 7.81999Z" fill="black"/>
<path d="M82.7256 8V7.67L84.3256 7.51H84.7556L86.3956 7.67V8H82.7256ZM83.7456 8C83.759 7.42666 83.7656 6.85 83.7656 6.27C83.7723 5.69 83.7756 5.10333 83.7756 4.51V4.06C83.7756 3.46666 83.7723 2.88 83.7656 2.3C83.7656 1.72 83.759 1.14 83.7456 0.559998H85.3656C85.3523 1.13333 85.3423 1.71333 85.3356 2.3C85.3356 2.88 85.3356 3.46666 85.3356 4.06V4.51C85.3356 5.09 85.3356 5.67333 85.3356 6.26C85.3423 6.84 85.3523 7.42 85.3656 8H83.7456ZM81.2656 2.68L81.3156 0.559998H87.8056L87.8556 2.68H87.3056L86.7256 0.559998L87.4556 0.949997H81.6456L82.3956 0.559998L81.8256 2.68H81.2656Z" fill="black"/>
<path d="M76.4652 8.18999C75.9052 8.18999 75.3885 8.11333 74.9152 7.96C74.4418 7.8 74.0252 7.56 73.6652 7.24C73.3118 6.92 73.0352 6.52 72.8352 6.04C72.6352 5.56 72.5352 4.99666 72.5352 4.35C72.5352 3.69 72.6352 3.11333 72.8352 2.61999C73.0418 2.11999 73.3252 1.70333 73.6852 1.36999C74.0452 1.02999 74.4618 0.779995 74.9352 0.619995C75.4152 0.453328 75.9285 0.369995 76.4752 0.369995C76.9352 0.369995 77.3285 0.419995 77.6552 0.519995C77.9885 0.613328 78.3185 0.753328 78.6452 0.939995L78.6152 2.72H78.0452L77.4752 0.659995L78.2452 0.919995V1.25C77.9985 1.07 77.7552 0.939995 77.5152 0.859995C77.2752 0.779995 77.0118 0.739995 76.7252 0.739995C76.2452 0.739995 75.8118 0.866662 75.4252 1.12C75.0385 1.37333 74.7318 1.76333 74.5052 2.28999C74.2852 2.81666 74.1752 3.48333 74.1752 4.29C74.1752 5.09666 74.2885 5.75999 74.5152 6.27999C74.7418 6.79999 75.0485 7.18666 75.4352 7.43999C75.8218 7.68666 76.2618 7.81 76.7552 7.81C77.0352 7.81 77.2952 7.76999 77.5352 7.68999C77.7818 7.60333 78.0385 7.46 78.3052 7.26V7.63L77.5552 7.88L78.1152 5.84H78.6852L78.7152 7.60999C78.4018 7.78999 78.0618 7.92999 77.6952 8.02999C77.3352 8.13666 76.9252 8.18999 76.4652 8.18999Z" fill="black"/>
<path d="M63.0498 8V7.67L64.0398 7.52H64.2298L65.3198 7.67V8H63.0498ZM63.7298 8L66.2298 0.529999H67.1898L69.7398 8H68.1498L66.0598 1.48H66.2698L66.2398 1.62L64.2498 8H63.7298ZM64.8498 5.61L64.9298 5.27H68.1298L68.2098 5.61H64.8498ZM67.0098 8V7.66L68.3598 7.51H68.9298L70.3398 7.66V8H67.0098Z" fill="black"/>
<path d="M53.7246 8V7.67L55.2946 7.51H55.6046L57.1746 7.67V8H53.7246ZM54.6346 8C54.6479 7.42666 54.6546 6.85 54.6546 6.27C54.6613 5.69 54.6646 5.10333 54.6646 4.51V4.06C54.6646 3.46666 54.6613 2.88 54.6546 2.3C54.6546 1.72 54.6479 1.14 54.6346 0.559998H56.2346C56.2213 1.13333 56.2113 1.71666 56.2046 2.31C56.2046 2.89666 56.2046 3.52 56.2046 4.18V4.46C56.2046 5.06666 56.2046 5.66333 56.2046 6.25C56.2113 6.83666 56.2213 7.42 56.2346 8H54.6346ZM59.6946 8.14C59.2546 8.14 58.9146 8.06666 58.6746 7.92C58.4413 7.77333 58.2979 7.51 58.2446 7.13L57.9146 5.7C57.8679 5.42 57.8013 5.19333 57.7146 5.02C57.6346 4.84 57.5146 4.70666 57.3546 4.62C57.2013 4.53333 56.9913 4.49 56.7246 4.49H55.4646V4.13H56.8546C57.2279 4.13 57.5313 4.05666 57.7646 3.91C57.9979 3.75666 58.1679 3.55666 58.2746 3.31C58.3879 3.05666 58.4446 2.77666 58.4446 2.47C58.4446 1.97666 58.3113 1.59666 58.0446 1.33C57.7779 1.06333 57.3846 0.929997 56.8646 0.929997H55.4446V0.559998H57.2446C58.1046 0.559998 58.7646 0.726664 59.2246 1.06C59.6846 1.38666 59.9146 1.84666 59.9146 2.44C59.9146 2.75333 59.8279 3.04666 59.6546 3.32C59.4813 3.59333 59.1979 3.82333 58.8046 4.01C58.4113 4.19666 57.8846 4.30666 57.2246 4.34V4.23C57.7979 4.25 58.2413 4.32666 58.5546 4.46C58.8679 4.58666 59.0979 4.77333 59.2446 5.02C59.3913 5.26 59.4979 5.56333 59.5646 5.93L59.9846 7.9L59.2046 7.56L60.8246 7.67V8C60.6313 8.04 60.4546 8.07333 60.2946 8.1C60.1346 8.12666 59.9346 8.14 59.6946 8.14ZM53.7246 0.899997V0.559998H55.4446V1.04H55.2946L53.7246 0.899997Z" fill="black"/>
<path d="M45.1162 8V7.67L46.6862 7.51H47.1262L48.7162 7.67V8H45.1162ZM46.0262 8C46.0395 7.42666 46.0462 6.85 46.0462 6.27C46.0529 5.69 46.0562 5.10333 46.0562 4.51V4.06C46.0562 3.46666 46.0529 2.88 46.0462 2.3C46.0462 1.72 46.0395 1.14 46.0262 0.559998H47.6462C47.6329 1.13333 47.6229 1.71333 47.6162 2.3C47.6162 2.88 47.6162 3.46666 47.6162 4.06V4.76C47.6162 5.22666 47.6162 5.74 47.6162 6.3C47.6229 6.85333 47.6329 7.42 47.6462 8H46.0262ZM46.8362 5.01V4.64H47.9962C48.4029 4.64 48.7362 4.56 48.9962 4.4C49.2562 4.24 49.4495 4.02 49.5762 3.74C49.7029 3.45333 49.7662 3.12666 49.7662 2.76C49.7662 2.15333 49.6262 1.69666 49.3462 1.39C49.0662 1.08333 48.6495 0.929997 48.0962 0.929997H46.8362V0.559998H48.1162C49.2229 0.559998 50.0195 0.753331 50.5062 1.14C50.9929 1.52666 51.2362 2.06666 51.2362 2.76C51.2362 3.17333 51.1295 3.55333 50.9162 3.9C50.7095 4.24 50.3729 4.51 49.9062 4.71C49.4395 4.91 48.8162 5.01 48.0362 5.01H46.8362ZM45.1162 0.899997V0.559998H46.8362V1.04H46.6862L45.1162 0.899997Z" fill="black"/>
<path d="M38.9814 8.18999C38.5214 8.18999 38.0814 8.10666 37.6614 7.93999C37.2414 7.77333 36.8648 7.52666 36.5314 7.2C36.2048 6.86666 35.9481 6.45666 35.7614 5.97C35.5748 5.48333 35.4814 4.91999 35.4814 4.27999C35.4814 3.63999 35.5748 3.07666 35.7614 2.59C35.9481 2.10333 36.2048 1.69666 36.5314 1.36999C36.8648 1.03666 37.2414 0.786661 37.6614 0.619995C38.0814 0.453328 38.5214 0.369995 38.9814 0.369995C39.4548 0.369995 39.8981 0.453328 40.3114 0.619995C40.7314 0.786661 41.1048 1.03666 41.4314 1.36999C41.7581 1.69666 42.0148 2.10333 42.2014 2.59C42.3881 3.07666 42.4814 3.63999 42.4814 4.27999C42.4814 4.91333 42.3881 5.47666 42.2014 5.97C42.0148 6.45666 41.7581 6.86666 41.4314 7.2C41.1048 7.52666 40.7314 7.77333 40.3114 7.93999C39.8981 8.10666 39.4548 8.18999 38.9814 8.18999ZM38.9814 7.81999C39.3014 7.81999 39.5781 7.73333 39.8114 7.56C40.0448 7.38 40.2381 7.13 40.3914 6.81C40.5448 6.49 40.6581 6.11666 40.7314 5.68999C40.8048 5.25666 40.8414 4.78666 40.8414 4.27999C40.8414 3.77333 40.8048 3.30666 40.7314 2.87999C40.6581 2.45333 40.5448 2.07999 40.3914 1.75999C40.2381 1.43999 40.0448 1.18999 39.8114 1.00999C39.5781 0.829995 39.3014 0.739995 38.9814 0.739995C38.6681 0.739995 38.3914 0.829995 38.1514 1.00999C37.9181 1.18999 37.7248 1.43999 37.5714 1.75999C37.4181 2.07999 37.3048 2.45333 37.2314 2.87999C37.1581 3.30666 37.1214 3.77333 37.1214 4.27999C37.1214 4.78666 37.1581 5.25666 37.2314 5.68999C37.3048 6.11666 37.4181 6.49 37.5714 6.81C37.7248 7.13 37.9181 7.38 38.1514 7.56C38.3914 7.73333 38.6681 7.81999 38.9814 7.81999Z" fill="black"/>
<path d="M26.1592 8V7.67L27.7292 7.51H28.0392L29.6092 7.67V8H26.1592ZM27.0692 8C27.0825 7.42666 27.0892 6.85 27.0892 6.27C27.0958 5.69 27.0992 5.10333 27.0992 4.51V4.06C27.0992 3.46666 27.0958 2.88 27.0892 2.3C27.0892 1.72 27.0825 1.14 27.0692 0.559998H28.6692C28.6558 1.13333 28.6458 1.71666 28.6392 2.31C28.6392 2.89666 28.6392 3.52 28.6392 4.18V4.46C28.6392 5.06666 28.6392 5.66333 28.6392 6.25C28.6458 6.83666 28.6558 7.42 28.6692 8H27.0692ZM32.1292 8.14C31.6892 8.14 31.3492 8.06666 31.1092 7.92C30.8758 7.77333 30.7325 7.51 30.6792 7.13L30.3492 5.7C30.3025 5.42 30.2358 5.19333 30.1492 5.02C30.0692 4.84 29.9492 4.70666 29.7892 4.62C29.6358 4.53333 29.4258 4.49 29.1592 4.49H27.8992V4.13H29.2892C29.6625 4.13 29.9658 4.05666 30.1992 3.91C30.4325 3.75666 30.6025 3.55666 30.7092 3.31C30.8225 3.05666 30.8792 2.77666 30.8792 2.47C30.8792 1.97666 30.7458 1.59666 30.4792 1.33C30.2125 1.06333 29.8192 0.929997 29.2992 0.929997H27.8792V0.559998H29.6792C30.5392 0.559998 31.1992 0.726664 31.6592 1.06C32.1192 1.38666 32.3492 1.84666 32.3492 2.44C32.3492 2.75333 32.2625 3.04666 32.0892 3.32C31.9158 3.59333 31.6325 3.82333 31.2392 4.01C30.8458 4.19666 30.3192 4.30666 29.6592 4.34V4.23C30.2325 4.25 30.6758 4.32666 30.9892 4.46C31.3025 4.58666 31.5325 4.77333 31.6792 5.02C31.8258 5.26 31.9325 5.56333 31.9992 5.93L32.4192 7.9L31.6392 7.56L33.2592 7.67V8C33.0658 8.04 32.8892 8.07333 32.7292 8.1C32.5692 8.12666 32.3692 8.14 32.1292 8.14ZM26.1592 0.899997V0.559998H27.8792V1.04H27.7292L26.1592 0.899997Z" fill="black"/>
<path d="M19.9531 8V7.67L21.5231 7.51H21.8131L23.4031 7.67V8H19.9531ZM20.8631 8C20.8831 7.42666 20.8931 6.85 20.8931 6.27C20.8998 5.69 20.9031 5.10333 20.9031 4.51V4.06C20.9031 3.46666 20.8998 2.88 20.8931 2.3C20.8931 1.72 20.8831 1.14 20.8631 0.559998H22.4931C22.4798 1.13333 22.4698 1.71333 22.4631 2.3C22.4631 2.88 22.4631 3.46666 22.4631 4.06V4.51C22.4631 5.09 22.4631 5.67333 22.4631 6.26C22.4698 6.84 22.4798 7.42 22.4931 8H20.8631ZM19.9531 0.899997V0.559998H23.4031V0.899997L21.8131 1.04H21.5231L19.9531 0.899997Z" fill="black"/>
<path d="M9.38086 8V7.67L10.9009 7.51H11.1909L12.7609 7.67V8H9.38086ZM10.2809 8C10.2942 7.42666 10.3009 6.85 10.3009 6.27C10.3009 5.69 10.3009 5.10333 10.3009 4.51V4.06C10.3009 3.46666 10.3009 2.88 10.3009 2.3C10.3009 1.72 10.2942 1.14 10.2809 0.559998H11.9009C11.8875 1.13333 11.8775 1.71333 11.8709 2.3C11.8709 2.88 11.8709 3.46666 11.8709 4.06V4.35C11.8709 5.00333 11.8709 5.63 11.8709 6.23C11.8775 6.83 11.8875 7.42 11.9009 8H10.2809ZM11.0909 4.39V4.02H15.4909V4.39H11.0909ZM13.8109 8V7.67L15.3609 7.51H15.6509L17.1909 7.67V8H13.8109ZM14.6709 8C14.6909 7.42666 14.7009 6.84333 14.7009 6.25C14.7075 5.65666 14.7109 5.02333 14.7109 4.35V4.06C14.7109 3.46666 14.7075 2.88 14.7009 2.3C14.7009 1.72 14.6909 1.14 14.6709 0.559998H16.3009C16.2875 1.13333 16.2775 1.71333 16.2709 2.3C16.2709 2.88 16.2709 3.46666 16.2709 4.06V4.51C16.2709 5.09 16.2709 5.67333 16.2709 6.26C16.2775 6.84 16.2875 7.42 16.3009 8H14.6709ZM9.38086 0.899997V0.559998H12.7609V0.899997L11.1909 1.04H10.9009L9.38086 0.899997ZM13.8109 0.899997V0.559998H17.1909V0.899997L15.6509 1.04H15.3609L13.8109 0.899997Z" fill="black"/>
<path d="M4.3802 8.18999C3.8202 8.18999 3.30353 8.11333 2.8302 7.96C2.35686 7.8 1.9402 7.56 1.5802 7.24C1.22686 6.92 0.950195 6.52 0.750195 6.04C0.550195 5.56 0.450195 4.99666 0.450195 4.35C0.450195 3.69 0.550195 3.11333 0.750195 2.61999C0.956862 2.11999 1.2402 1.70333 1.6002 1.36999C1.9602 1.02999 2.37686 0.779995 2.8502 0.619995C3.3302 0.453328 3.84353 0.369995 4.3902 0.369995C4.8502 0.369995 5.24353 0.419995 5.5702 0.519995C5.90353 0.613328 6.23353 0.753328 6.5602 0.939995L6.5302 2.72H5.9602L5.3902 0.659995L6.1602 0.919995V1.25C5.91353 1.07 5.6702 0.939995 5.4302 0.859995C5.1902 0.779995 4.92686 0.739995 4.6402 0.739995C4.1602 0.739995 3.72686 0.866662 3.3402 1.12C2.95353 1.37333 2.64686 1.76333 2.4202 2.28999C2.2002 2.81666 2.0902 3.48333 2.0902 4.29C2.0902 5.09666 2.20353 5.75999 2.4302 6.27999C2.65686 6.79999 2.96353 7.18666 3.3502 7.43999C3.73686 7.68666 4.17686 7.81 4.6702 7.81C4.9502 7.81 5.2102 7.76999 5.4502 7.68999C5.69686 7.60333 5.95353 7.46 6.2202 7.26V7.63L5.4702 7.88L6.0302 5.84H6.6002L6.6302 7.60999C6.31686 7.78999 5.97686 7.92999 5.6102 8.02999C5.2502 8.13666 4.8402 8.18999 4.3802 8.18999Z" fill="black"/>
<path d="M90.7443 35.608C92.3443 34.968 93.6323 34.224 94.6083 33.376C95.6003 32.512 96.3443 31.592 96.8403 30.616C97.3363 29.624 97.6723 28.616 97.8483 27.592C98.0243 26.552 98.1123 25.544 98.1123 24.568C98.1123 23.128 98.0243 21.976 97.8483 21.112C97.6723 20.232 97.4163 19.592 97.0803 19.192C96.7603 18.792 96.3683 18.592 95.9043 18.592C95.6323 18.592 95.3283 18.688 94.9923 18.88C94.6723 19.056 94.3523 19.328 94.0323 19.696C93.7283 20.048 93.4403 20.504 93.1683 21.064C92.8003 21.8 92.5283 22.528 92.3523 23.248C92.1763 23.968 92.0883 24.696 92.0883 25.432C92.0883 26.024 92.1203 26.56 92.1843 27.04C92.2483 27.52 92.2803 28.048 92.2803 28.624C92.2803 28.992 92.1523 29.296 91.8963 29.536C91.6403 29.776 91.3203 29.896 90.9363 29.896C90.5363 29.896 90.2083 29.8 89.9523 29.608C89.6963 29.4 89.4883 29.112 89.3283 28.744C89.2163 28.488 89.1283 28.216 89.0643 27.928C89.0003 27.64 88.9523 27.336 88.9203 27.016C88.8883 26.696 88.8723 26.368 88.8723 26.032C88.8723 25.472 88.9283 24.832 89.0403 24.112C89.1523 23.392 89.2723 22.664 89.4003 21.928C89.5283 21.176 89.6403 20.48 89.7363 19.84C89.8483 19.2 89.9043 18.672 89.9043 18.256C89.9043 17.696 89.8563 17.192 89.7603 16.744C89.6803 16.296 89.5283 15.88 89.3043 15.496C89.0963 15.096 88.8243 14.696 88.4883 14.296L88.6083 14.104C88.8803 14.088 89.1923 14.112 89.5443 14.176C89.9123 14.24 90.2323 14.328 90.5043 14.44C90.9363 14.632 91.3363 14.888 91.7043 15.208C92.0723 15.528 92.3683 15.864 92.5923 16.216C92.8323 16.568 92.9523 16.888 92.9523 17.176C92.9523 17.512 92.9043 17.816 92.8083 18.088C92.7123 18.36 92.6163 18.632 92.5203 18.904C92.3763 19.288 92.2643 19.648 92.1843 19.984C92.1043 20.32 92.0563 20.576 92.0403 20.752C92.0403 20.976 92.0723 21.096 92.1363 21.112C92.2163 21.112 92.3043 21.016 92.4003 20.824C92.8323 20.056 93.2803 19.408 93.7443 18.88C94.2083 18.352 94.6883 17.952 95.1843 17.68C95.6963 17.392 96.2163 17.248 96.7443 17.248C97.6563 17.248 98.4563 17.528 99.1443 18.088C99.8483 18.632 100.4 19.48 100.8 20.632C101.2 21.768 101.4 23.248 101.4 25.072C101.4 26.928 101.048 28.616 100.344 30.136C99.6403 31.656 98.5203 32.928 96.9843 33.952C95.4483 34.96 93.4163 35.656 90.8883 36.04L90.7443 35.608Z" fill="black"/>
<path d="M73.7284 23.8C73.5364 23.8 73.3444 23.728 73.1524 23.584C72.9764 23.424 72.7923 23.2 72.6003 22.912C72.3763 22.56 72.0964 22.144 71.7604 21.664C71.4244 21.184 70.9844 20.68 70.4404 20.152L70.6804 19.84C71.3684 20.016 72.0004 20.24 72.5764 20.512C73.1684 20.768 73.6644 21.088 74.0644 21.472C74.5124 21.904 74.7364 22.352 74.7364 22.816C74.7364 23.088 74.6484 23.32 74.4724 23.512C74.3124 23.704 74.0644 23.8 73.7284 23.8ZM69.5764 35.8C69.2244 35.8 68.9124 35.704 68.6404 35.512C68.3844 35.336 68.1763 35.128 68.0163 34.888C67.8563 34.616 67.6884 34.32 67.5124 34C67.3524 33.696 67.1124 33.28 66.7924 32.752C66.3604 32.032 65.6644 31.2 64.7044 30.256C63.7604 29.296 62.6004 28.224 61.2244 27.04C60.9204 26.784 60.6964 26.52 60.5524 26.248C60.4244 25.96 60.3604 25.712 60.3604 25.504C60.3604 25.232 60.4164 24.976 60.5284 24.736C60.6404 24.496 60.8244 24.216 61.0804 23.896C61.3524 23.576 61.6884 23.192 62.0884 22.744C62.4884 22.28 62.9124 21.792 63.3604 21.28C63.8244 20.768 64.2804 20.272 64.7284 19.792C65.1764 19.296 65.5684 18.848 65.9044 18.448C66.2564 18.032 66.5203 17.704 66.6964 17.464C66.8884 17.24 67.0164 17.048 67.0804 16.888C67.1604 16.728 67.2003 16.56 67.2003 16.384C67.2003 16.112 67.0724 15.824 66.8164 15.52C66.5764 15.2 66.3044 14.88 66.0004 14.56L66.1924 14.224C66.5924 14.256 66.9764 14.304 67.3444 14.368C67.7124 14.416 68.0484 14.52 68.3524 14.68C68.8804 14.92 69.3444 15.232 69.7444 15.616C70.1444 15.984 70.4644 16.368 70.7044 16.768C70.9444 17.168 71.0644 17.52 71.0644 17.824C71.0644 18.096 70.9764 18.32 70.8004 18.496C70.6404 18.656 70.4163 18.816 70.1283 18.976C69.8403 19.12 69.5124 19.32 69.1444 19.576C68.7124 19.864 68.2244 20.208 67.6804 20.608C67.1364 20.992 66.6003 21.392 66.0723 21.808C65.5443 22.208 65.0564 22.592 64.6084 22.96C64.1764 23.328 63.8324 23.64 63.5764 23.896C63.2724 24.2 63.0484 24.448 62.9044 24.64C62.7764 24.816 62.7124 24.976 62.7124 25.12C62.7124 25.296 62.7924 25.472 62.9524 25.648C63.1284 25.808 63.3444 25.976 63.6004 26.152C64.3524 26.664 65.1364 27.184 65.9524 27.712C66.7844 28.24 67.5844 28.8 68.3524 29.392C69.1204 29.984 69.7764 30.616 70.3204 31.288C70.7523 31.848 71.0403 32.336 71.1843 32.752C71.3443 33.152 71.4244 33.568 71.4244 34C71.4244 34.256 71.3684 34.528 71.2564 34.816C71.1444 35.104 70.9524 35.336 70.6804 35.512C70.4084 35.704 70.0404 35.8 69.5764 35.8ZM76.1044 21.688C75.8644 21.688 75.6564 21.608 75.4804 21.448C75.3204 21.272 75.1284 21.032 74.9044 20.728C74.6804 20.44 74.4084 20.088 74.0884 19.672C73.7844 19.256 73.3124 18.792 72.6724 18.28L72.9124 17.968C74.3684 18.272 75.4564 18.688 76.1764 19.216C76.7364 19.632 77.0163 20.136 77.0163 20.728C77.0163 21.016 76.9364 21.248 76.7764 21.424C76.6164 21.6 76.3924 21.688 76.1044 21.688Z" fill="black"/>
<path d="M43.5358 34.984C42.3678 34.984 41.4718 34.68 40.8478 34.072C40.2398 33.464 39.9278 32.68 39.9118 31.72C39.8958 30.856 39.9358 30.072 40.0318 29.368C40.1278 28.664 40.1758 27.92 40.1758 27.136C40.1758 26.64 40.0638 26.216 39.8398 25.864C39.6158 25.512 39.1838 25.336 38.5438 25.336C37.9358 25.336 37.3598 25.536 36.8158 25.936C36.2718 26.336 35.7838 26.84 35.3518 27.448C34.9198 28.056 34.5758 28.68 34.3198 29.32C34.0478 29.976 33.7998 30.664 33.5758 31.384C33.3678 32.088 33.1598 32.736 32.9518 33.328C32.8078 33.728 32.5998 34.08 32.3278 34.384C32.0558 34.704 31.6718 34.864 31.1758 34.864C30.8238 34.864 30.5278 34.76 30.2878 34.552C30.0638 34.36 29.8878 34.112 29.7598 33.808C29.6478 33.504 29.5918 33.2 29.5918 32.896C29.5918 32.448 29.7278 31.944 29.9998 31.384C30.2718 30.824 30.6158 30.216 31.0318 29.56C31.4478 28.904 31.8798 28.192 32.3278 27.424C32.6158 26.928 32.9758 26.312 33.4078 25.576C33.8398 24.84 34.2958 24.064 34.7758 23.248C35.2718 22.432 35.7438 21.64 36.1918 20.872C36.6398 20.088 37.0318 19.4 37.3678 18.808C37.7038 18.2 37.9438 17.76 38.0878 17.488C38.1838 17.264 38.2158 17.072 38.1838 16.912C38.1678 16.736 38.0958 16.592 37.9678 16.48C37.7758 16.32 37.5358 16.168 37.2478 16.024C36.9758 15.864 36.7278 15.736 36.5038 15.64L36.5278 15.328C36.8318 15.2 37.1838 15.112 37.5838 15.064C37.9998 15 38.3438 14.984 38.6158 15.016C39.3198 15.096 39.9278 15.304 40.4398 15.64C40.9518 15.976 41.3438 16.36 41.6158 16.792C41.9038 17.208 42.0478 17.584 42.0478 17.92C42.0478 18.208 41.8878 18.456 41.5678 18.664C41.2478 18.872 40.9198 19.144 40.5838 19.48C40.2638 19.8 39.9038 20.184 39.5038 20.632C39.1198 21.064 38.7278 21.536 38.3278 22.048C37.9278 22.544 37.5518 23.04 37.1998 23.536C36.8478 24.016 36.5518 24.448 36.3118 24.832C36.2798 24.912 36.2718 24.96 36.2878 24.976C36.3198 24.992 36.3678 24.984 36.4318 24.952C37.0078 24.68 37.5518 24.488 38.0638 24.376C38.5758 24.264 39.0078 24.208 39.3598 24.208C40.3838 24.208 41.1838 24.456 41.7598 24.952C42.3358 25.448 42.6638 26.144 42.7438 27.04C42.8078 27.616 42.8318 28.176 42.8158 28.72C42.8158 29.248 42.8158 29.864 42.8158 30.568C42.8158 31.144 42.9598 31.536 43.2478 31.744C43.5518 31.952 43.9198 32.056 44.3518 32.056C44.9758 32.056 45.5758 31.896 46.1518 31.576C46.7438 31.24 47.2878 30.816 47.7838 30.304C48.2798 29.776 48.7198 29.192 49.1038 28.552C49.4878 27.912 49.8078 27.272 50.0638 26.632L50.3998 26.704C50.3038 28.144 50.0558 29.392 49.6558 30.448C49.2718 31.488 48.7758 32.344 48.1678 33.016C47.5598 33.688 46.8558 34.184 46.0558 34.504C45.2718 34.824 44.4318 34.984 43.5358 34.984Z" fill="black"/>
<path d="M19.7039 19.696C19.4959 19.68 19.3119 19.6 19.1519 19.456C18.9919 19.312 18.8159 19.104 18.6239 18.832C18.3999 18.496 18.1279 18.112 17.8079 17.68C17.5039 17.232 17.0719 16.752 16.5119 16.24L16.7279 15.952C17.4159 16.128 18.0399 16.336 18.5999 16.576C19.1759 16.8 19.6559 17.088 20.0399 17.44C20.2799 17.664 20.4399 17.888 20.5199 18.112C20.6159 18.336 20.6639 18.56 20.6639 18.784C20.6639 19.04 20.5759 19.264 20.3999 19.456C20.2239 19.632 19.9919 19.712 19.7039 19.696ZM11.7119 35.392C10.3359 35.392 9.10393 35.232 8.01593 34.912C6.92793 34.592 6.06393 34.112 5.42393 33.472C4.79993 32.816 4.48793 31.992 4.48793 31C4.48793 30.296 4.63193 29.616 4.91993 28.96C5.20793 28.288 5.58393 27.656 6.04793 27.064C6.52793 26.456 7.03993 25.904 7.58393 25.408C8.12793 24.912 8.65593 24.48 9.16793 24.112C9.61593 23.792 10.1199 23.456 10.6799 23.104C11.2559 22.752 11.8159 22.416 12.3599 22.096C12.9199 21.776 13.4079 21.488 13.8239 21.232C14.2559 20.976 14.5519 20.792 14.7119 20.68C14.8559 20.6 14.9439 20.504 14.9759 20.392C15.0079 20.28 14.9919 20.144 14.9279 19.984C14.8639 19.76 14.7359 19.568 14.5439 19.408C14.3679 19.232 14.1919 19.064 14.0159 18.904L14.1599 18.664C14.6079 18.664 15.0319 18.688 15.4319 18.736C15.8319 18.768 16.1919 18.864 16.5119 19.024C16.8479 19.168 17.1679 19.384 17.4719 19.672C17.7919 19.96 18.0559 20.264 18.2639 20.584C18.4719 20.904 18.5759 21.216 18.5759 21.52C18.5759 21.808 18.4559 22.048 18.2159 22.24C17.9759 22.416 17.5599 22.592 16.9679 22.768C16.3279 22.96 15.6079 23.216 14.8079 23.536C14.0239 23.84 13.2319 24.184 12.4319 24.568C11.6319 24.936 10.8879 25.32 10.1999 25.72C9.65593 26.04 9.14393 26.384 8.66393 26.752C8.19993 27.104 7.79193 27.48 7.43993 27.88C7.08793 28.264 6.81593 28.656 6.62393 29.056C6.43193 29.456 6.33593 29.864 6.33593 30.28C6.33593 30.744 6.48793 31.136 6.79193 31.456C7.11193 31.76 7.57593 31.992 8.18393 32.152C8.79193 32.296 9.54393 32.368 10.4399 32.368C11.5439 32.368 12.4879 32.304 13.2719 32.176C14.0719 32.048 14.7119 31.92 15.1919 31.792C15.6719 31.664 15.9839 31.6 16.1279 31.6C16.6559 31.6 17.1439 31.648 17.5919 31.744C18.0559 31.84 18.4239 32.008 18.6959 32.248C18.9679 32.488 19.1039 32.816 19.1039 33.232C19.1039 33.52 18.9919 33.8 18.7679 34.072C18.5439 34.344 18.2559 34.552 17.9039 34.696C17.5679 34.824 17.0799 34.936 16.4399 35.032C15.8159 35.144 15.0959 35.232 14.2799 35.296C13.4799 35.36 12.6239 35.392 11.7119 35.392ZM9.43193 24.64C8.93593 24.464 8.52793 24.224 8.20793 23.92C7.88793 23.616 7.61593 23.264 7.39193 22.864C7.21593 22.496 7.05593 22.024 6.91193 21.448C6.78393 20.856 6.67193 20.248 6.57593 19.624C6.47993 19 6.39993 18.456 6.33593 17.992C6.28793 17.688 6.19993 17.448 6.07193 17.272C5.95993 17.096 5.78393 16.92 5.54393 16.744C5.35193 16.616 5.12793 16.488 4.87193 16.36C4.63193 16.232 4.38393 16.12 4.12793 16.024V15.712C4.44793 15.568 4.78393 15.448 5.13593 15.352C5.50393 15.24 5.87193 15.184 6.23993 15.184C6.83193 15.184 7.37593 15.304 7.87193 15.544C8.36793 15.768 8.75993 16.04 9.04793 16.36C9.35193 16.664 9.50393 16.96 9.50393 17.248C9.51993 17.488 9.49593 17.76 9.43193 18.064C9.38393 18.368 9.35993 18.672 9.35993 18.976C9.35993 19.296 9.37593 19.632 9.40793 19.984C9.43993 20.336 9.48793 20.68 9.55193 21.016C9.61593 21.336 9.69593 21.616 9.79193 21.856C9.96793 22.24 10.1919 22.552 10.4639 22.792C10.7359 23.032 11.0559 23.224 11.4239 23.368L9.43193 24.64ZM22.0799 17.896C21.8399 17.896 21.6319 17.816 21.4559 17.656C21.2959 17.496 21.1039 17.272 20.8799 16.984C20.6719 16.696 20.4159 16.376 20.1119 16.024C19.8239 15.656 19.3519 15.208 18.6959 14.68L18.8879 14.392C19.5919 14.52 20.2159 14.68 20.7599 14.872C21.3199 15.048 21.7759 15.264 22.1279 15.52C22.4319 15.728 22.6399 15.96 22.7519 16.216C22.8799 16.456 22.9439 16.72 22.9439 17.008C22.9439 17.28 22.8639 17.496 22.7039 17.656C22.5599 17.816 22.3519 17.896 22.0799 17.896Z" fill="black"/>
</svg>
